<?xml version="1.0" standalone="no"?>
<!DOCTYPE svg PUBLIC "-//W3C//DTD SVG 20010904//EN"
 "http://www.w3.org/TR/2001/REC-SVG-20010904/DTD/svg10.dtd">
<svg version="1.0" xmlns="http://www.w3.org/2000/svg"
 width="1080.000000pt" height="1080.000000pt" viewBox="0 0 1080.000000 1080.000000"
 preserveAspectRatio="xMidYMid meet">
<metadata>
Created by potrace 1.14, written by Peter Selinger 2001-2017
</metadata>
<g transform="translate(0.000000,1080.000000) scale(0.100000,-0.100000)"
fill="#000000" stroke="none">
<path d="M0 5400 l0 -5400 5400 0 5400 0 0 5400 0 5400 -5400 0 -5400 0 0
-5400z m4228 3085 c793 -253 900 -289 922 -314 320 -364 1040 -1153 1055
-1156 11 -3 368 -43 793 -89 l773 -85 268 -199 c148 -110 492 -365 764 -568
273 -203 495 -372 494 -375 -1 -4 -310 -328 -686 -720 l-683 -714 -837 -265
c-460 -146 -841 -268 -847 -270 -7 -3 -230 -340 -497 -749 l-486 -745 -918
-303 c-505 -166 -922 -301 -927 -300 -12 4 -567 1799 -562 1822 2 11 146 400
320 864 174 464 316 852 316 862 0 9 -123 383 -274 830 l-274 812 181 974
c134 719 185 973 195 973 7 0 417 -128 910 -285z"/>
<path d="M3545 8348 c-16 -71 -275 -1479 -275 -1497 0 -19 383 -1167 400
-1199 6 -12 89 190 473 1160 l82 208 767 2 766 3 -404 450 -405 450 -697 222
c-383 123 -698 223 -699 223 -2 0 -5 -10 -8 -22z"/>
<path d="M4765 6702 l-330 -3 -303 -763 -302 -764 279 -827 c154 -455 281
-828 283 -830 2 -1 372 107 822 239 l820 241 462 709 462 708 -462 647 -462
646 -469 0 c-259 0 -618 -1 -800 -3z"/>
<path d="M6456 6659 c4 -8 202 -287 441 -621 238 -334 433 -613 433 -620 0 -7
-184 -294 -409 -638 -225 -344 -405 -626 -402 -628 6 -2 224 66 1082 338 l156
50 537 561 c296 308 536 562 534 563 -2 2 -267 199 -589 438 l-586 436 -564
61 c-310 34 -581 64 -603 67 -31 5 -37 3 -30 -7z"/>
<path d="M3646 4684 c-4 -11 -111 -296 -237 -634 l-230 -614 217 -703 c120
-387 222 -703 228 -703 6 0 331 105 721 234 l710 233 356 544 c196 299 355
545 355 546 -1 1 -355 -101 -786 -228 -431 -126 -787 -226 -790 -222 -4 5
-123 352 -265 773 -141 421 -261 771 -265 779 -5 10 -9 9 -14 -5z"/>
</g>
</svg>
